<svg width="337" height="45" viewBox="0 0 337 45" fill="none" xmlns="http://www.w3.org/2000/svg">
<rect width="337" height="45" rx="5" fill="white"/>
<path fill-rule="evenodd" clip-rule="evenodd" d="M81.6735 17.2867C83.3022 17.2867 84.4009 17.9761 85.0273 18.5522L87.4751 16.21C85.9717 14.8406 84.0154 14 81.6735 14C78.2812 14 75.3515 15.9078 73.9252 18.6844L76.7297 20.8189C77.4332 18.7694 79.3799 17.2867 81.6735 17.2867Z" fill="#D95040"/>
<path fill-rule="evenodd" clip-rule="evenodd" d="M90 22.6889C90 21.9901 89.9422 21.4801 89.8169 20.9512H81.6735V24.1056H86.4535C86.3571 24.8895 85.8367 26.0701 84.6803 26.8634L87.4172 28.9412C89.0556 27.4584 90 25.2767 90 22.6889Z" fill="#5086EC"/>
<path fill-rule="evenodd" clip-rule="evenodd" d="M76.7392 24.1811C76.5561 23.6522 76.4501 23.0855 76.4501 22.5C76.4501 21.9144 76.5561 21.3478 76.7296 20.8189L73.9252 18.6844C73.3373 19.8367 73 21.1305 73 22.5C73 23.8694 73.3373 25.1633 73.9252 26.3155L76.7392 24.1811Z" fill="#F2BD42"/>
<path fill-rule="evenodd" clip-rule="evenodd" d="M81.6734 31C84.0152 31 85.9812 30.2445 87.4171 28.9412L84.6802 26.8634C83.9477 27.3639 82.9648 27.7134 81.6734 27.7134C79.3797 27.7134 77.433 26.2306 76.7391 24.1812L73.9347 26.3156C75.361 29.0923 78.2811 31 81.6734 31Z" fill="#5EA863"/>
<path d="M105.516 25.0156C105.516 24.5729 105.359 24.2344 105.047 24C104.734 23.7604 104.172 23.5104 103.359 23.25C102.547 22.9844 101.904 22.724 101.43 22.4688C100.138 21.7708 99.4922 20.8307 99.4922 19.6484C99.4922 19.0339 99.6641 18.487 100.008 18.0078C100.357 17.5234 100.854 17.1458 101.5 16.875C102.151 16.6042 102.88 16.4688 103.688 16.4688C104.5 16.4688 105.224 16.6172 105.859 16.9141C106.495 17.2057 106.987 17.6198 107.336 18.1562C107.69 18.6927 107.867 19.3021 107.867 19.9844H105.523C105.523 19.4635 105.359 19.0599 105.031 18.7734C104.703 18.4818 104.242 18.3359 103.648 18.3359C103.076 18.3359 102.63 18.4583 102.312 18.7031C101.995 18.9427 101.836 19.2604 101.836 19.6562C101.836 20.026 102.021 20.3359 102.391 20.5859C102.766 20.8359 103.315 21.0703 104.039 21.2891C105.372 21.6901 106.344 22.1875 106.953 22.7812C107.562 23.375 107.867 24.1146 107.867 25C107.867 25.9844 107.495 26.7578 106.75 27.3203C106.005 27.8776 105.003 28.1562 103.742 28.1562C102.867 28.1562 102.07 27.9974 101.352 27.6797C100.633 27.3568 100.083 26.9167 99.7031 26.3594C99.3281 25.8021 99.1406 25.1562 99.1406 24.4219H101.492C101.492 25.6771 102.242 26.3047 103.742 26.3047C104.299 26.3047 104.734 26.1927 105.047 25.9688C105.359 25.7396 105.516 25.4219 105.516 25.0156Z" fill="#767676"/>
<path d="M111.695 28H109.43V19.5469H111.695V28ZM109.297 17.3594C109.297 17.0208 109.409 16.7422 109.633 16.5234C109.862 16.3047 110.172 16.1953 110.562 16.1953C110.948 16.1953 111.255 16.3047 111.484 16.5234C111.714 16.7422 111.828 17.0208 111.828 17.3594C111.828 17.7031 111.711 17.9844 111.477 18.2031C111.247 18.4219 110.943 18.5312 110.562 18.5312C110.182 18.5312 109.875 18.4219 109.641 18.2031C109.411 17.9844 109.297 17.7031 109.297 17.3594Z" fill="#767676"/>
<path d="M113.234 23.7109C113.234 22.4141 113.542 21.3698 114.156 20.5781C114.776 19.7865 115.609 19.3906 116.656 19.3906C117.583 19.3906 118.305 19.7083 118.82 20.3438L118.914 19.5469H120.961V27.7188C120.961 28.4583 120.792 29.1016 120.453 29.6484C120.12 30.1953 119.648 30.612 119.039 30.8984C118.43 31.1849 117.716 31.3281 116.898 31.3281C116.279 31.3281 115.674 31.2031 115.086 30.9531C114.497 30.7083 114.052 30.3906 113.75 30L114.75 28.625C115.312 29.2552 115.995 29.5703 116.797 29.5703C117.396 29.5703 117.862 29.4089 118.195 29.0859C118.529 28.7682 118.695 28.3151 118.695 27.7266V27.2734C118.174 27.862 117.49 28.1562 116.641 28.1562C115.625 28.1562 114.802 27.7604 114.172 26.9688C113.547 26.1719 113.234 25.1172 113.234 23.8047V23.7109ZM115.492 23.875C115.492 24.6406 115.646 25.2422 115.953 25.6797C116.26 26.112 116.682 26.3281 117.219 26.3281C117.906 26.3281 118.398 26.0703 118.695 25.5547V22C118.393 21.4844 117.906 21.2266 117.234 21.2266C116.693 21.2266 116.266 21.4479 115.953 21.8906C115.646 22.3333 115.492 22.9948 115.492 23.875Z" fill="#767676"/>
<path d="M124.781 19.5469L124.852 20.5234C125.456 19.7682 126.266 19.3906 127.281 19.3906C128.177 19.3906 128.844 19.6536 129.281 20.1797C129.719 20.7057 129.943 21.4922 129.953 22.5391V28H127.695V22.5938C127.695 22.1146 127.591 21.7682 127.383 21.5547C127.174 21.3359 126.828 21.2266 126.344 21.2266C125.708 21.2266 125.232 21.4974 124.914 22.0391V28H122.656V19.5469H124.781Z" fill="#767676"/>
<path d="M138.039 28H135.773V19.5469H138.039V28ZM135.641 17.3594C135.641 17.0208 135.753 16.7422 135.977 16.5234C136.206 16.3047 136.516 16.1953 136.906 16.1953C137.292 16.1953 137.599 16.3047 137.828 16.5234C138.057 16.7422 138.172 17.0208 138.172 17.3594C138.172 17.7031 138.055 17.9844 137.82 18.2031C137.591 18.4219 137.286 18.5312 136.906 18.5312C136.526 18.5312 136.219 18.4219 135.984 18.2031C135.755 17.9844 135.641 17.7031 135.641 17.3594Z" fill="#767676"/>
<path d="M141.984 19.5469L142.055 20.5234C142.659 19.7682 143.469 19.3906 144.484 19.3906C145.38 19.3906 146.047 19.6536 146.484 20.1797C146.922 20.7057 147.146 21.4922 147.156 22.5391V28H144.898V22.5938C144.898 22.1146 144.794 21.7682 144.586 21.5547C144.378 21.3359 144.031 21.2266 143.547 21.2266C142.911 21.2266 142.435 21.4974 142.117 22.0391V28H139.859V19.5469H141.984Z" fill="#767676"/>
<path d="M160.211 24.9297L161.32 19.5469H163.5L161.344 28H159.453L157.852 22.6797L156.25 28H154.367L152.211 19.5469H154.391L155.492 24.9219L157.039 19.5469H158.672L160.211 24.9297Z" fill="#767676"/>
<path d="M167.008 28H164.742V19.5469H167.008V28ZM164.609 17.3594C164.609 17.0208 164.721 16.7422 164.945 16.5234C165.174 16.3047 165.484 16.1953 165.875 16.1953C166.26 16.1953 166.568 16.3047 166.797 16.5234C167.026 16.7422 167.141 17.0208 167.141 17.3594C167.141 17.7031 167.023 17.9844 166.789 18.2031C166.56 18.4219 166.255 18.5312 165.875 18.5312C165.495 18.5312 165.188 18.4219 164.953 18.2031C164.724 17.9844 164.609 17.7031 164.609 17.3594Z" fill="#767676"/>
<path d="M171.578 17.4688V19.5469H173.023V21.2031H171.578V25.4219C171.578 25.7344 171.638 25.9583 171.758 26.0938C171.878 26.2292 172.107 26.2969 172.445 26.2969C172.695 26.2969 172.917 26.2786 173.109 26.2422V27.9531C172.667 28.0885 172.211 28.1562 171.742 28.1562C170.159 28.1562 169.352 27.3568 169.32 25.7578V21.2031H168.086V19.5469H169.32V17.4688H171.578Z" fill="#767676"/>
<path d="M176.484 20.4688C177.083 19.75 177.836 19.3906 178.742 19.3906C180.576 19.3906 181.505 20.4557 181.531 22.5859V28H179.273V22.6484C179.273 22.1641 179.169 21.8073 178.961 21.5781C178.753 21.3438 178.406 21.2266 177.922 21.2266C177.26 21.2266 176.781 21.4818 176.484 21.9922V28H174.227V16H176.484V20.4688Z" fill="#767676"/>
<path d="M196.367 26.5625C195.945 27.0677 195.349 27.4609 194.578 27.7422C193.807 28.0182 192.953 28.1562 192.016 28.1562C191.031 28.1562 190.167 27.9427 189.422 27.5156C188.682 27.0833 188.109 26.4583 187.703 25.6406C187.302 24.8229 187.096 23.862 187.086 22.7578V21.9844C187.086 20.849 187.276 19.8672 187.656 19.0391C188.042 18.2057 188.594 17.5703 189.312 17.1328C190.036 16.6901 190.883 16.4688 191.852 16.4688C193.201 16.4688 194.255 16.7917 195.016 17.4375C195.776 18.0781 196.227 19.013 196.367 20.2422H194.086C193.982 19.5911 193.75 19.1146 193.391 18.8125C193.036 18.5104 192.547 18.3594 191.922 18.3594C191.125 18.3594 190.518 18.6589 190.102 19.2578C189.685 19.8568 189.474 20.7474 189.469 21.9297V22.6562C189.469 23.849 189.695 24.75 190.148 25.3594C190.602 25.9688 191.266 26.2734 192.141 26.2734C193.021 26.2734 193.648 26.0859 194.023 25.7109V23.75H191.891V22.0234H196.367V26.5625Z" fill="#767676"/>
<path d="M197.773 23.6953C197.773 22.8568 197.935 22.1094 198.258 21.4531C198.581 20.7969 199.044 20.2891 199.648 19.9297C200.258 19.5703 200.964 19.3906 201.766 19.3906C202.906 19.3906 203.836 19.7396 204.555 20.4375C205.279 21.1354 205.682 22.0833 205.766 23.2812L205.781 23.8594C205.781 25.1562 205.419 26.1979 204.695 26.9844C203.971 27.7656 203 28.1562 201.781 28.1562C200.562 28.1562 199.589 27.7656 198.859 26.9844C198.135 26.2031 197.773 25.1406 197.773 23.7969V23.6953ZM200.031 23.8594C200.031 24.6615 200.182 25.276 200.484 25.7031C200.786 26.125 201.219 26.3359 201.781 26.3359C202.328 26.3359 202.755 26.1276 203.062 25.7109C203.37 25.2891 203.523 24.6172 203.523 23.6953C203.523 22.9089 203.37 22.2995 203.062 21.8672C202.755 21.4349 202.323 21.2188 201.766 21.2188C201.214 21.2188 200.786 21.4349 200.484 21.8672C200.182 22.2943 200.031 22.9583 200.031 23.8594Z" fill="#767676"/>
<path d="M206.82 23.6953C206.82 22.8568 206.982 22.1094 207.305 21.4531C207.628 20.7969 208.091 20.2891 208.695 19.9297C209.305 19.5703 210.01 19.3906 210.812 19.3906C211.953 19.3906 212.883 19.7396 213.602 20.4375C214.326 21.1354 214.729 22.0833 214.812 23.2812L214.828 23.8594C214.828 25.1562 214.466 26.1979 213.742 26.9844C213.018 27.7656 212.047 28.1562 210.828 28.1562C209.609 28.1562 208.635 27.7656 207.906 26.9844C207.182 26.2031 206.82 25.1406 206.82 23.7969V23.6953ZM209.078 23.8594C209.078 24.6615 209.229 25.276 209.531 25.7031C209.833 26.125 210.266 26.3359 210.828 26.3359C211.375 26.3359 211.802 26.1276 212.109 25.7109C212.417 25.2891 212.57 24.6172 212.57 23.6953C212.57 22.9089 212.417 22.2995 212.109 21.8672C211.802 21.4349 211.37 21.2188 210.812 21.2188C210.26 21.2188 209.833 21.4349 209.531 21.8672C209.229 22.2943 209.078 22.9583 209.078 23.8594Z" fill="#767676"/>
<path d="M215.891 23.7109C215.891 22.4141 216.198 21.3698 216.812 20.5781C217.432 19.7865 218.266 19.3906 219.312 19.3906C220.24 19.3906 220.961 19.7083 221.477 20.3438L221.57 19.5469H223.617V27.7188C223.617 28.4583 223.448 29.1016 223.109 29.6484C222.776 30.1953 222.305 30.612 221.695 30.8984C221.086 31.1849 220.372 31.3281 219.555 31.3281C218.935 31.3281 218.331 31.2031 217.742 30.9531C217.154 30.7083 216.708 30.3906 216.406 30L217.406 28.625C217.969 29.2552 218.651 29.5703 219.453 29.5703C220.052 29.5703 220.518 29.4089 220.852 29.0859C221.185 28.7682 221.352 28.3151 221.352 27.7266V27.2734C220.831 27.862 220.146 28.1562 219.297 28.1562C218.281 28.1562 217.458 27.7604 216.828 26.9688C216.203 26.1719 215.891 25.1172 215.891 23.8047V23.7109ZM218.148 23.875C218.148 24.6406 218.302 25.2422 218.609 25.6797C218.917 26.112 219.339 26.3281 219.875 26.3281C220.562 26.3281 221.055 26.0703 221.352 25.5547V22C221.049 21.4844 220.562 21.2266 219.891 21.2266C219.349 21.2266 218.922 21.4479 218.609 21.8906C218.302 22.3333 218.148 22.9948 218.148 23.875Z" fill="#767676"/>
<path d="M227.742 28H225.477V16H227.742V28Z" fill="#767676"/>
<path d="M233.5 28.1562C232.26 28.1562 231.25 27.776 230.469 27.0156C229.693 26.2552 229.305 25.2422 229.305 23.9766V23.7578C229.305 22.9089 229.469 22.151 229.797 21.4844C230.125 20.8125 230.589 20.2969 231.188 19.9375C231.792 19.5729 232.479 19.3906 233.25 19.3906C234.406 19.3906 235.315 19.7552 235.977 20.4844C236.643 21.2135 236.977 22.2474 236.977 23.5859V24.5078H231.594C231.667 25.0599 231.885 25.5026 232.25 25.8359C232.62 26.1693 233.086 26.3359 233.648 26.3359C234.518 26.3359 235.198 26.0208 235.688 25.3906L236.797 26.6328C236.458 27.112 236 27.487 235.422 27.7578C234.844 28.0234 234.203 28.1562 233.5 28.1562ZM233.242 21.2188C232.794 21.2188 232.43 21.3698 232.148 21.6719C231.872 21.974 231.695 22.4062 231.617 22.9688H234.758V22.7891C234.747 22.2891 234.612 21.9036 234.352 21.6328C234.091 21.3568 233.721 21.2188 233.242 21.2188Z" fill="#767676"/>
</svg>
